<?xml version="1.0" encoding="utf-8"?>
<!-- Generator: Adobe Illustrator 26.0.1, SVG Export Plug-In . SVG Version: 6.00 Build 0)  -->
<svg version="1.1" id="Слой_1" xmlns="http://www.w3.org/2000/svg" xmlns:xlink="http://www.w3.org/1999/xlink" x="0px" y="0px"
	 viewBox="0 0 288 560" style="enable-background:new 0 0 288 560;" xml:space="preserve">
<style type="text/css">
	.st0{fill:url(#SVGID_1_);stroke:#000000;stroke-miterlimit:10;}
	.st1{fill:url(#SVGID_00000138571145233514273790000002112942155058568895_);stroke:#000000;stroke-miterlimit:10;}
	.st2{fill:url(#SVGID_00000109021064453554350320000013290411975367452297_);}
	.st3{fill:url(#SVGID_00000125566737709678929430000016214955883066953378_);}
	.st4{display:none;}
	.st5{display:inline;}
	.st6{fill:url(#SVGID_00000014599864133250235860000004806720240724817067_);stroke:#000000;stroke-miterlimit:10;}
	.st7{fill:none;stroke:#000000;stroke-miterlimit:10;}
</style>
<linearGradient id="SVGID_1_" gradientUnits="userSpaceOnUse" x1="196.8183" y1="215.3906" x2="403.1332" y2="215.3906" gradientTransform="matrix(6.123234e-17 1 -1 6.123234e-17 361.8681 36.0657)">
	<stop  offset="0" style="stop-color:#FFFFFF"/>
	<stop  offset="1" style="stop-color:#000000"/>
</linearGradient>
<path class="st0" d="M192.26,270.51C84.34,337.96-49.98,94.74,45.67,359.95S420.83,127.66,192.26,270.51z"/>
<linearGradient id="SVGID_00000116229469219538187970000005297598584431693484_" gradientUnits="userSpaceOnUse" x1="246.5077" y1="215.3906" x2="452.8227" y2="215.3906" gradientTransform="matrix(6.123234e-17 1 -1 6.123234e-17 361.8681 36.0657)">
	<stop  offset="0" style="stop-color:#FFFFFF"/>
	<stop  offset="1" style="stop-color:#000000"/>
</linearGradient>
<path style="fill:url(#SVGID_00000116229469219538187970000005297598584431693484_);stroke:#000000;stroke-miterlimit:10;" d="
	M192.26,320.2C84.34,387.65-49.98,144.43,45.67,409.64S420.83,177.35,192.26,320.2z"/>
<g>
	<g>
		<path d="M151.65,285.28c1.3-16.54-0.65-33.05-2.61-49.46c-1.9-15.85-4.12-31.69-7.6-47.28c-3.37-15.12-8.03-29.88-14.35-44.03
			c-6.05-13.54-13.51-26.38-20.56-39.4c-7.99-14.76-15.35-29.79-19.41-46.16c-1.86-7.49-13.43-4.32-11.57,3.19
			c7.02,28.32,23.49,52.63,36.42,78.41c14.09,28.12,20.48,58.74,24.39,89.75c2.29,18.19,4.74,36.62,3.29,54.97
			C139.04,292.98,151.05,292.94,151.65,285.28L151.65,285.28z"/>
	</g>
</g>
<g>
	
		<linearGradient id="SVGID_00000107553435593086407910000001962500729616388778_" gradientUnits="userSpaceOnUse" x1="140.2228" y1="170.8355" x2="203.8703" y2="170.8355">
		<stop  offset="0" style="stop-color:#FFFFFF"/>
		<stop  offset="1" style="stop-color:#000000"/>
	</linearGradient>
	<path style="fill:url(#SVGID_00000107553435593086407910000001962500729616388778_);" d="M146.34,244.48
		c-7.09-32.64-8.02-66.61-2.75-99.59c1.98-12.36,4.91-24.81,11.34-35.54c13.06-21.82,39.18-34.4,48.94-57.88
		c-1.09,26.04-2.69,53.22-15.83,75.73c-4.01,6.87-8.99,13.11-13.49,19.67c-4.97,7.24-9.35,14.88-13.32,22.71
		c-7.69,15.15-13.96,31.37-15.13,48.32c-0.46,6.62-0.13,13.26,0.19,19.88c0.85,17.48,1.71,34.97,2.56,52.45"/>
	<g>
		<path d="M152.12,242.89c-4.1-19.23-6.1-38.8-5.88-58.47c0.21-19.01,1.78-38.87,7.39-57.13c4.87-15.84,15.15-26.97,26.99-38.04
			c10.98-10.26,22.36-20.71,28.43-34.76c-3.73-1.01-7.45-2.02-11.18-3.03c-0.65,15.37-1.38,30.86-4.83,45.91
			c-3.67,15.96-11.04,28.77-20.49,41.96c-19.11,26.65-33.68,58.13-32.56,91.48c0.66,19.81,1.9,39.61,2.86,59.41
			c0.38,7.69,12.38,7.73,12,0c-0.85-17.48-1.72-34.97-2.56-52.45c-0.42-8.8-0.84-17.66,0.55-26.4c1.28-8.08,3.68-15.97,6.65-23.58
			c6-15.33,14.36-29.81,23.96-43.14c9.32-12.95,16.67-26.02,20.57-41.61c4.21-16.83,5.12-34.3,5.85-51.57
			c0.24-5.65-8.78-8.59-11.18-3.03c-9.9,22.91-33.9,35.04-47.41,55.45c-7.94,12.01-11.42,26.3-13.62,40.34
			c-2.47,15.79-3.67,31.77-3.4,47.75c0.31,18.18,2.49,36.32,6.29,54.1C142.16,253.63,153.73,250.43,152.12,242.89L152.12,242.89z"/>
	</g>
</g>
<g>
	
		<linearGradient id="SVGID_00000173125830865027351750000004207413336146537348_" gradientUnits="userSpaceOnUse" x1="44.232" y1="242.431" x2="150.8431" y2="242.431">
		<stop  offset="0" style="stop-color:#FFFFFF"/>
		<stop  offset="1" style="stop-color:#000000"/>
	</linearGradient>
	<path style="fill:url(#SVGID_00000173125830865027351750000004207413336146537348_);" d="M138.49,288.27
		c-4.09-16.5-9.14-34.44-23.05-44.21c-6.79-4.77-14.98-7.01-22.73-9.99c-10.87-4.19-21.12-9.99-30.31-17.16
		c-7.37-5.76-14.42-13.04-16-22.26c-5.72,10.87,0.95,23.88,7.46,34.29c6.19,9.9,12.69,20.12,22.5,26.45
		c8.43,5.44,18.52,7.5,28.29,9.77c17.48,4.07,36.16,10.16,46.19,25.05"/>
	<g>
		<path d="M144.28,286.68c-5.34-21.42-12.8-43-34.51-52.51c-11.63-5.1-23.44-8.62-34.31-15.42c-9.66-6.05-20.82-13.84-23.26-25.69
			c-1-4.86-8.79-6.05-10.97-1.43c-6.49,13.76-0.4,27.58,7.02,39.63c7.01,11.39,14.71,23.25,26.51,30.2
			c22.29,13.12,54.56,8.49,70.91,31.79c4.4,6.27,14.81,0.28,10.36-6.06c-14.89-21.21-39.75-24.34-62.82-31.02
			c-12.85-3.72-21.55-11.19-28.96-22.16c-6.3-9.32-18.24-24.47-12.65-36.32c-3.66-0.48-7.31-0.96-10.97-1.43
			c2.4,11.63,11.01,20.02,20.14,26.91c10.2,7.69,21.5,13.48,33.47,17.87c11.15,4.08,21.05,8.11,27.53,18.61
			c5.67,9.2,8.36,19.85,10.94,30.23C134.57,297.36,146.15,294.18,144.28,286.68L144.28,286.68z"/>
	</g>
</g>
<g>
	<g>
		<path d="M26.86,58.9c6.53,6.34,13.66,12.92,22.75,15.19c9.92,2.48,20.65-0.41,30.1-3.58c7.68-2.57,15.3-6.73,18.4-14.66
			c1.77-4.52,1.66-9.31,1.48-14.08c-0.22-5.86,0.48-10.6,3.81-15.57c4.33-6.48-5.96-12.3-10.36-6.06c-1.71,2.42-7.21-2.95-8.3-3.94
			c-3.56-3.2-8.4-1.63-10.03,2.65c-0.59,1.55-1.19,3.11-1.78,4.66c-0.82,2.16-1.79,2.35,0.59,2.83c3.53,0.71-0.84-1.88-1.87-2.43
			c-3.48-1.85-7.69-1.6-10.7,1.01c-0.98,0.85-5.26,6.06-4.65,7.44c-0.3,0.54,0.1,0.41,1.2-0.39c1.45-0.19,1.68-0.51,0.68-0.95
			c-0.22-0.55-2.76-1.44-3.02-1.53c-1.93-0.62-4.12-0.63-6.01,0.11c-1.84,0.73-3.33,2.1-4.17,3.89c-0.65,1.38-0.34,4.23-1.25,5.27
			c-1.55,1.78-8.81-1.34-11.39-1.16c-4.39,0.31-8.05,3.23-9.52,7.35c-1.79,5-0.12,9.66,1.89,14.31c3.06,7.07,13.4,0.96,10.36-6.06
			c-0.44-1.02-0.91-2.15-1.1-3.25c-0.22-1.31-0.39-0.37-0.14-0.4c1.45-0.2,3.83,1.17,5.3,1.47c4.24,0.87,8.35,0.21,11.76-2.54
			c2.72-2.19,5.74-6.63,5.12-10.4c0.21-2.34-1.28-1.39-4.49,2.87c0.4,0.28,0.8,0.56,1.2,0.83c0.73,0.58,1.79,1.05,2.67,1.33
			c2,0.65,4.11,0.64,6.07-0.1c2.98-1.12,4.67-3.56,6.04-6.31c0.15-0.3,1.45-2.61,1.32-2.8c-0.77,0.29-1.54,0.59-2.32,0.88
			c0.3,0.21,0.59,0.43,0.89,0.64c0.37,0.53,1.54,1.2,2.14,1.54c10.52,5.97,14.03-7.83,16.75-14.95c-3.34,0.88-6.69,1.77-10.03,2.65
			c7.9,7.11,19.65,12.15,27.14,1.51c-3.45-2.02-6.91-4.04-10.36-6.06c-4.67,6.98-5.68,14.26-5.41,22.48
			c0.12,3.66,0.58,7.79-1.79,10.9c-1.89,2.48-5.16,3.89-7.99,4.95c-6.99,2.6-15.8,5.43-23.28,4.37
			c-7.84-1.11-13.79-7.18-19.21-12.44C29.8,45.04,21.31,53.51,26.86,58.9L26.86,58.9z"/>
	</g>
</g>
<g>
	<g>
		<path d="M91.39,32.53c-1.69-2.72-2.9-5.41-3.77-8.5c-2.46,2.46-4.92,4.92-7.38,7.38c3.92,1.19,8.19,0.75,11.7-1.43
			c1.55-0.96,2.95-2.29,3.99-3.78c0.62-0.89,1.16-1.81,1.5-2.85c1-3.05,0.97,0.31-2.1-0.01c-1.93-2.53-3.86-5.06-5.79-7.6
			c-0.97,3.23-2.1,6.37-3.59,9.4c-1.22,2.49-1.6,4.05-4.12,4.56c-2.8,0.57-5.12,0.11-7.62,1.9c-2.09,1.51-3.28,3.59-4,6.04
			c-0.06,0.19-0.73,2.77-0.58,2.85c1.96-0.85,2.31-1.55,1.06-2.1c-0.62-0.43-1.25-0.84-1.91-1.21c-2.42-1.3-5.28-1.97-7.97-1.23
			c-5.61,1.53-8.1,7.71-5.3,12.67c1.29,2.28,4.26,3.49,6.78,2.76c1.25-0.36,2.94-0.79,4.06-1.48c0.45-0.15,0.9-0.31,1.35-0.46
			c-0.08-1.96-0.15-3.93-0.23-5.89c-0.52-0.29-4.54,0.87-4.99,0.95c-1.62,0.3-3.24,0.59-4.86,0.89c-3.24,0.59-6.48,1.19-9.72,1.78
			c-1.45,0.27-6.21,1.72-7.63,0.56c-2.42,3.14-4.85,6.28-7.27,9.42c3.65,1.55,7.29,3.11,10.94,4.66c3.21,1.37,6.84,3.55,10.38,3.76
			c3.28,0.2,5.43-1,7.64-3.27c0.39-0.5,0.78-1.01,1.14-1.53c-1.67,0.97-1.84,1.44-0.51,1.4c1.08,0.78,3.84,0.08,5.04-0.14
			C78.8,60.05,92,50.18,96.97,39.91c2.46-5.08,0.06-12.02-6.38-11.94c-7.4,0.1-8.08,7.79-7.97,13.37c0.03,1.74,0.03,3.49,0.1,5.24
			c0.08,2.07,0.5,2.36-0.91,3.38c-1.99,1.45-6.78,0.86-9.18,1.69c-3.29,1.15-5.64,3.48-8.58,5.19c-3.25,1.89-6.48,2.23-10.17,1.86
			c-7.68-0.76-7.63,11.24,0,12c5.36,0.53,10.79-0.49,15.54-3.08c2.26-1.24,4.14-3.24,6.46-4.34c2.41-1.14,5.25-0.89,7.82-1.44
			c4.33-0.92,8.57-3.48,10.2-7.78c1.02-2.69,0.87-5.53,0.82-8.36c-0.03-1.45-0.05-2.91-0.08-4.36c-0.01-0.58-0.02-1.16-0.03-1.75
			c0.48-3.11-1.09-2.99-4.7,0.37c-1.2-0.92-2.39-1.84-3.59-2.76c-1.18-1.56,0.73-3.52-1.51-0.52c-0.77,1.03-1.6,2-2.48,2.94
			c-1.57,1.68-3.27,3.28-5.1,4.67c-3.7,2.82-8.79,6.17-13.56,5.94c-2.29-0.11-4.28-0.57-6.5,0.42c-0.61,0.27-4.93,3.28-4.4,4.07
			c2.9-0.47,3.49-0.93,1.76-1.38c-0.6-0.22-1.19-0.46-1.77-0.72c-1.53-0.63-3.04-1.29-4.56-1.94c-3.04-1.29-6.08-2.59-9.12-3.88
			c-2.79-1.19-5.76-1.02-7.74,1.55c-1.67,2.17-1.85,5.98,0.47,7.88c5.32,4.34,10.92,4.03,17.36,2.88
			c7.23-1.29,15.69-1.76,22.58-4.34c5.63-2.11,8.08-8.61,4.11-13.51c-4.75-5.85-10.77-3.17-16.73-1.44
			c2.26,0.92,4.52,1.84,6.78,2.76c-3.91,2.5-4.75,4.29-2.51,5.38c0.65,0.39,1.28,0.8,1.89,1.24c1.11,0.64,2.25,1.23,3.48,1.59
			c2.69,0.8,5.63,0.69,8.1-0.77c1.94-1.15,3.3-3.16,4.03-5.25c0.19-0.56,0.97-2.79,0.77-3.36c0.04-0.24,0.07-0.47,0.11-0.71
			c-1.49,0.8-1.68,1.14-0.57,1.01c1.01,0.93,5.64-0.34,6.72-0.73c2.72-1,4.49-2.99,6.02-5.39c3.22-5.06,5.46-10.93,7.18-16.65
			c1.22-4.05-2.05-7.21-5.79-7.6c-3.26-0.33-6.03,1.59-7.61,4.35c-1.16,2.03-1.22,5.09-4.29,4.15c-4.4-1.34-8.59,3.06-7.38,7.38
			c1.13,4.02,2.77,7.81,4.98,11.36C85.1,45.14,95.48,39.12,91.39,32.53L91.39,32.53z"/>
	</g>
</g>
<g class="st4">
	<g class="st5">
		<path d="M40.56,20.56C47,15.3,53.98,10.81,61.33,6.92c6.83-3.61,0.77-13.97-6.06-10.36C47,0.94,39.32,6.16,32.08,12.07
			C26.09,16.96,34.62,25.41,40.56,20.56L40.56,20.56z"/>
	</g>
</g>
<linearGradient id="SVGID_00000084488905612955148210000010548608907309525892_" gradientUnits="userSpaceOnUse" x1="-79.4259" y1="223.4143" x2="126.889" y2="223.4143" gradientTransform="matrix(-0.0485 -0.9988 0.9988 -0.0485 -85.5763 421.1637)">
	<stop  offset="0" style="stop-color:#FFFFFF"/>
	<stop  offset="1" style="stop-color:#000000"/>
</linearGradient>
<path style="fill:url(#SVGID_00000084488905612955148210000010548608907309525892_);stroke:#000000;stroke-miterlimit:10;" d="
	M93.87,454.3c104.52-72.6,250.47,163.83,142.08-96.44S-127.51,608.07,93.87,454.3z"/>
<g>
	<g>
		<path d="M54.52,48.65c5.23-0.5,10.43-1.25,15.55-2.43c4.21-0.98,10.32-1.84,12.83-5.84c2.18-3.48,1.11-8.19-1.91-10.8
			c-4-3.46-8.87-2.23-13.26-0.36c-3,1.28-3.61,5.65-2.15,8.21c1.77,3.1,5.24,3.41,8.21,2.15c2.84-0.52,2.94-2.82,0.32-6.89
			c-1.06,0.33-2.12,0.64-3.19,0.94c-1.6,0.44-3.22,0.85-4.84,1.21c-3.82,0.85-7.66,1.45-11.55,1.82
			C46.9,37.38,46.83,49.38,54.52,48.65L54.52,48.65z"/>
	</g>
</g>
<g>
	<g>
		<path d="M25.43,62.4c4.41,3.49,9.1,5.32,14.8,4.86c3.23-0.26,6-2.57,6-6c0-3.05-2.75-6.26-6-6c-0.88,0.07-1.75,0.07-2.63,0.08
			c-0.75-0.06-0.82-0.06-0.22,0.02c-0.29-0.05-0.58-0.11-0.87-0.19c-0.29-0.07-0.57-0.15-0.85-0.25c0.51,0.25,0.43,0.22-0.22-0.1
			c-0.37-0.19-0.74-0.41-1.09-0.63c-0.57-0.42-0.72-0.51-0.44-0.27c-2.54-2.01-6.01-2.48-8.49,0C23.34,56,22.87,60.38,25.43,62.4
			L25.43,62.4z"/>
	</g>
</g>
<path class="st7" d="M146.44,193.56"/>
</svg>
